<svg width="36" height="54" viewBox="0 0 36 54" fill="none" xmlns="http://www.w3.org/2000/svg">
<path d="M34.5 28.5L24 36L34.5 43.5V28.5Z" stroke="#FEFEFE" stroke-width="2" stroke-linecap="round" stroke-linejoin="round"/>
<path d="M21 25.5H4.5C2.84315 25.5 1.5 26.8431 1.5 28.5V43.5C1.5 45.1569 2.84315 46.5 4.5 46.5H21C22.6569 46.5 24 45.1569 24 43.5V28.5C24 26.8431 22.6569 25.5 21 25.5Z" stroke="#FEFEFE" stroke-width="2" stroke-linecap="round" stroke-linejoin="round"/>
<path d="M12.6953 4.56563C12.6156 4.59844 12.4984 4.69219 12.4375 4.76719C12.3719 4.84219 11.4156 6.26719 10.3047 7.93594C8.92187 10.0219 8.26562 10.9641 8.21874 10.9547C8.18124 10.9453 7.10312 10.3359 5.82812 9.60469C3.54062 8.29219 3.50312 8.27344 3.24062 8.27344C2.95468 8.27344 2.79999 8.35313 2.62656 8.5875C2.43906 8.83594 2.45781 8.94844 3.26406 12.4219L4.03281 15.7266H13H21.9672L22.7359 12.4219C23.5422 8.94844 23.5609 8.83594 23.3734 8.5875C23.1953 8.35313 23.0453 8.27344 22.7547 8.27344H22.4828L20.4531 9.62344C18.5031 10.9266 18.4234 10.9734 18.3437 10.8891C18.3016 10.8422 17.1953 9.42656 15.8875 7.74844C14.5797 6.06563 13.4594 4.65469 13.3937 4.60781C13.2344 4.50469 12.8734 4.48125 12.6953 4.56563Z" fill="#FEFEFE"/>
<path d="M4.42659 17.4234C4.65159 18.4219 4.80627 19.0547 4.84377 19.125C4.8719 19.1766 4.97034 19.275 5.06409 19.3453L5.23284 19.4766H13.0047H20.7766L20.9032 19.3781C21.175 19.1766 21.1938 19.125 21.5735 17.4234L21.6157 17.25H13H4.3844L4.42659 17.4234Z" fill="#FEFEFE"/>
</svg>
